<?xml version="1.0" encoding="utf-8"?>
<!-- Generator: Adobe Illustrator 23.0.1, SVG Export Plug-In . SVG Version: 6.00 Build 0)  -->
<svg version="1.1" id="Layer_1" xmlns="http://www.w3.org/2000/svg" xmlns:xlink="http://www.w3.org/1999/xlink" x="0px" y="0px"
	 viewBox="0 0 887.63 1080" style="enable-background:new 0 0 887.63 1080;" xml:space="preserve">
<style type="text/css">
	.st0{fill:#5037EA;}
	.st1{fill:#3521B6;}
</style>
<rect class="st0" width="887.63" height="1080"/>
<g>
	<polygon class="st1" points="479.83,85.84 562.55,85.84 562.55,168.56 	"/>
	<polygon class="st1" points="562.55,85.84 645.27,85.84 645.27,168.56 	"/>
	<polygon class="st1" points="645.27,85.84 728,85.84 728,168.56 	"/>
	<polygon class="st1" points="728,85.84 810.72,85.84 810.72,168.56 	"/>
	<polygon class="st1" points="479.83,168.56 562.55,168.56 562.55,251.28 	"/>
	<polygon class="st1" points="562.55,168.56 645.27,168.56 645.27,251.28 	"/>
	<polygon class="st1" points="645.27,168.56 728,168.56 728,251.28 	"/>
	<polygon class="st1" points="728,168.56 810.72,168.56 810.72,251.28 	"/>
</g>
<polygon class="st1" points="804.9,666.38 804.9,749.11 722.71,749.11 722.71,831.83 639.99,831.83 639.99,914.55 557.26,914.55 
	557.26,997.28 474.54,997.28 474.54,1080 557.26,1080 639.99,1080 722.71,1080 804.9,1080 805.43,1080 887.63,1080 887.63,749.11 
	887.63,666.38 "/>
<polygon class="st1" points="165.45,3.11 82.72,3.11 0,3.11 0,85.84 0,168.56 0,251.28 82.72,251.28 82.72,168.56 165.45,168.56 
	165.45,85.84 248.17,85.84 248.17,3.11 "/>
</svg>
